<mxfile host="app.diagrams.net" modified="2023-08-21T11:38:44.516Z" agent="Mozilla/5.0 (Macintosh; Intel Mac OS X 10_15_7) AppleWebKit/605.1.15 (KHTML, like Gecko) Version/16.6 Safari/605.1.15" version="21.6.8" etag="OaWMbkraI8xzjkwmuR3p" type="github">
  <diagram name="Page-1" id="hyC9f7BJKt4L2kLrTTg7">
    <mxGraphModel>
      <root>
        <mxCell id="0" />
        <mxCell id="1" parent="0" />
      </root>
    </mxGraphModel>
  </diagram>
</mxfile>
